<?xml version="1.0" encoding="UTF-8" standalone="no"?>
<!-- Created with Inkscape (http://www.inkscape.org/) -->

<svg
   xmlns:dc="http://purl.org/dc/elements/1.1/"
   xmlns:cc="http://creativecommons.org/ns#"
   xmlns:rdf="http://www.w3.org/1999/02/22-rdf-syntax-ns#"
   xmlns:svg="http://www.w3.org/2000/svg"
   xmlns="http://www.w3.org/2000/svg"
   xmlns:sodipodi="http://sodipodi.sourceforge.net/DTD/sodipodi-0.dtd"
   xmlns:inkscape="http://www.inkscape.org/namespaces/inkscape"
   width="193.76534"
   height="193.76399"
   viewBox="0 0 193.76534 193.76399"
   version="1.1"
   id="SVGRoot"
   inkscape:version="0.92.4 (5da689c313, 2019-01-14)"
   sodipodi:docname="OOO logo no text.svg">
  <title
     id="title4335">OOO no-text logo</title>
  <defs
     id="defs1371" />
  <sodipodi:namedview
     id="base"
     pagecolor="#ffffff"
     bordercolor="#666666"
     borderopacity="1.0"
     inkscape:pageopacity="0.0"
     inkscape:pageshadow="2"
     inkscape:zoom="1.3333333"
     inkscape:cx="99.507664"
     inkscape:cy="127.632"
     inkscape:document-units="px"
     inkscape:current-layer="layer1"
     showgrid="false"
     inkscape:window-width="1850"
     inkscape:window-height="1016"
     inkscape:window-x="70"
     inkscape:window-y="27"
     inkscape:window-maximized="1"
     inkscape:grid-bbox="true"
     fit-margin-top="0"
     fit-margin-left="0"
     fit-margin-right="0"
     fit-margin-bottom="0"
     inkscape:pagecheckerboard="true" />
  <metadata
     id="metadata1374">
    <rdf:RDF>
      <cc:Work
         rdf:about="">
        <dc:format>image/svg+xml</dc:format>
        <dc:type
           rdf:resource="http://purl.org/dc/dcmitype/StillImage" />
        <dc:title>OOO no-text logo</dc:title>
        <dc:creator>
          <cc:Agent>
            <dc:title>Order of the Overflow</dc:title>
          </cc:Agent>
        </dc:creator>
      </cc:Work>
    </rdf:RDF>
  </metadata>
  <g
     inkscape:label="Layer 1"
     inkscape:groupmode="layer"
     id="layer1"
     transform="translate(0.88266424,0.13199516)">
    <g
       id="g4296"
       transform="translate(-1.5,3)">
      <g
         transform="matrix(1.3333333,0,0,-1.3333333,122.6061,93.777863)"
         id="g2370">
        <path
           inkscape:connector-curvature="0"
           id="path2372"
           style="fill:#222527;fill-opacity:1;fill-rule:nonzero;stroke:none"
           d="M 0,0 C 0.021,0 0.043,-0.002 0.064,-0.002 0.086,-0.002 0.107,0 0.128,0 0.107,0.037 0.086,0.074 0.064,0.111 0.042,0.074 0.021,0.037 0,0" />
      </g>
      <g
         transform="matrix(1.3333333,0,0,-1.3333333,97.5,190.632)"
         id="g2374">
        <path
           inkscape:connector-curvature="0"
           id="path2376"
           style="fill:#cba952;fill-opacity:1;fill-rule:nonzero;stroke:none"
           d="m 0,0 c -40.066,0 -72.662,32.596 -72.662,72.662 0,40.066 32.596,72.661 72.662,72.661 40.066,0 72.662,-32.595 72.662,-72.661 C 72.662,32.596 40.066,0 0,0" />
      </g>
      <g
         transform="matrix(1.3333333,0,0,-1.3333333,97.5,0.200933)"
         id="g2378">
        <path
           inkscape:connector-curvature="0"
           id="path2380"
           style="fill:#222527;fill-opacity:1;fill-rule:nonzero;stroke:none"
           d="m 0,0 c -38.687,0 -70.162,-31.475 -70.162,-70.162 0,-38.687 31.475,-70.161 70.162,-70.161 38.687,0 70.162,31.474 70.162,70.161 C 70.162,-31.475 38.687,0 0,0" />
      </g>
      <g
         transform="matrix(1.3333333,0,0,-1.3333333,97.4765,183.76347)"
         id="g2382">
        <path
           inkscape:connector-curvature="0"
           id="path2384"
           style="fill:#cba952;fill-opacity:1;fill-rule:nonzero;stroke:none"
           d="m 0,0 c -37.229,0 -67.517,30.288 -67.517,67.518 0,37.229 30.288,67.517 67.517,67.517 37.229,0 67.518,-30.288 67.518,-67.517 C 67.518,30.288 37.229,0 0,0" />
      </g>
      <g
         transform="matrix(1.3333333,0,0,-1.3333333,97.4765,7.050663)"
         id="g2386">
        <path
           inkscape:connector-curvature="0"
           id="path2388"
           style="fill:#ae1c33;fill-opacity:1;fill-rule:nonzero;stroke:none"
           d="m 0,0 c -35.851,0 -65.017,-29.167 -65.017,-65.017 0,-35.851 29.166,-65.018 65.017,-65.018 35.851,0 65.018,29.167 65.018,65.018 C 65.018,-29.167 35.851,0 0,0" />
      </g>
      <g
         transform="matrix(1.3333333,0,0,-1.3333333,95.0013,83.901463)"
         id="g2390">
        <path
           inkscape:connector-curvature="0"
           id="path2392"
           style="fill:#222527;fill-opacity:1;fill-rule:nonzero;stroke:none"
           d="m 0,0 c 0.655,-0.655 1.268,-1.354 1.856,-2.073 0.59,0.719 1.202,1.418 1.857,2.073 4.767,4.768 10.939,7.614 17.581,8.167 1.452,2.913 2.273,6.195 2.273,9.67 0,5.996 -2.43,11.423 -6.359,15.352 -3.928,3.929 -9.356,6.359 -15.351,6.359 -5.996,0 -11.423,-2.43 -15.352,-6.359 -3.929,-3.929 -6.359,-9.356 -6.359,-15.352 0,-3.477 0.822,-6.76 2.275,-9.674 C -10.909,7.601 -4.755,4.756 0,0" />
      </g>
      <g
         transform="matrix(1.3333333,0,0,-1.3333333,88.9212,110.53174)"
         id="g2394">
        <path
           inkscape:connector-curvature="0"
           id="path2396"
           style="fill:#222527;fill-opacity:1;fill-rule:nonzero;stroke:none"
           d="m 0,0 c 0,3.406 0.633,6.774 1.825,9.941 -5.8,0.943 -11.148,3.662 -15.381,7.896 -1.173,1.172 -2.232,2.46 -3.185,3.83 -5.466,-0.331 -10.387,-2.679 -14.024,-6.315 -3.928,-3.929 -6.359,-9.357 -6.359,-15.352 0,-5.995 2.431,-11.423 6.359,-15.352 3.929,-3.929 9.357,-6.358 15.352,-6.358 5.996,0 11.423,2.429 15.352,6.358 1.024,1.025 1.944,2.153 2.748,3.365 C 0.932,-8.248 0,-4.153 0,0" />
      </g>
      <g
         transform="matrix(1.3333333,0,0,-1.3333333,147.0521,90.062933)"
         id="g2398">
        <path
           inkscape:connector-curvature="0"
           id="path2400"
           style="fill:#222527;fill-opacity:1;fill-rule:nonzero;stroke:none"
           d="m 0,0 c -3.636,3.637 -8.558,5.984 -14.023,6.315 -0.954,-1.37 -2.013,-2.657 -3.185,-3.83 -4.233,-4.234 -9.581,-6.952 -15.381,-7.896 1.192,-3.166 1.824,-6.534 1.824,-9.941 0,-4.152 -0.931,-8.247 -2.686,-11.987 0.804,-1.212 1.723,-2.34 2.747,-3.364 3.93,-3.929 9.357,-6.359 15.352,-6.359 5.996,0 11.423,2.43 15.352,6.359 3.929,3.929 6.359,9.356 6.359,15.351 C 6.359,-9.356 3.929,-3.929 0,0" />
      </g>
      <g
         transform="matrix(1.3333333,0,0,-1.3333333,101.4928,18.762803)"
         id="g2402">
        <path
           inkscape:connector-curvature="0"
           id="path2404"
           style="fill:#cba952;fill-opacity:1;fill-rule:nonzero;stroke:none"
           d="m 0,0 c -0.631,0.033 -1.265,0.056 -1.901,0.068 l 0.095,4.999 C -1.113,5.054 -0.424,5.029 0.263,4.993 Z m -7.601,-0.105 -0.407,4.983 c 0.686,0.056 1.375,0.1 2.068,0.132 l 0.235,-4.994 c -0.635,-0.03 -1.267,-0.07 -1.896,-0.121 M 5.67,-0.586 C 5.046,-0.489 4.418,-0.403 3.788,-0.327 L 4.383,4.638 C 5.071,4.555 5.755,4.461 6.436,4.355 Z M -13.251,-0.85 -14.16,4.067 c 0.678,0.125 1.36,0.239 2.045,0.341 l 0.736,-4.946 c -0.627,-0.093 -1.251,-0.196 -1.872,-0.312 M 11.25,-1.742 c -0.612,0.16 -1.228,0.309 -1.847,0.449 l 1.099,4.878 c 0.676,-0.152 1.346,-0.315 2.012,-0.49 z m -30.049,-0.422 -1.4,4.8 c 0.661,0.193 1.327,0.375 1.997,0.546 l 1.237,-4.845 c -0.615,-0.157 -1.226,-0.323 -1.834,-0.501 m 35.484,-1.297 c -0.593,0.221 -1.191,0.433 -1.793,0.635 l 1.59,4.74 c 0.655,-0.22 1.305,-0.45 1.95,-0.691 z m -40.872,-0.577 -1.882,4.633 c 0.641,0.259 1.286,0.509 1.937,0.748 l 1.723,-4.694 c -0.597,-0.219 -1.19,-0.448 -1.778,-0.687 M 21.905,-5.72 c -0.566,0.28 -1.137,0.551 -1.714,0.812 l 2.063,4.554 c 0.628,-0.284 1.25,-0.579 1.866,-0.883 z m -51.263,-0.732 -2.343,4.417 c 0.611,0.324 1.226,0.637 1.849,0.941 l 2.191,-4.494 c -0.57,-0.279 -1.136,-0.567 -1.697,-0.864 m 56.232,-2.046 c -0.535,0.336 -1.076,0.663 -1.624,0.981 l 2.512,4.323 c 0.597,-0.347 1.187,-0.703 1.771,-1.07 z m -61.131,-0.88 -2.778,4.157 c 0.574,0.384 1.155,0.758 1.743,1.122 l 2.635,-4.249 c -0.539,-0.334 -1.072,-0.678 -1.6,-1.03 m 65.799,-2.389 c -0.5,0.389 -1.007,0.769 -1.52,1.142 l 2.938,4.046 c 0.558,-0.405 1.109,-0.819 1.652,-1.242 z m -70.376,-1.017 -3.182,3.856 c 0.533,0.44 1.072,0.87 1.619,1.291 l 3.051,-3.961 c -0.503,-0.387 -0.999,-0.783 -1.488,-1.186 m 74.691,-2.707 c -0.458,0.438 -0.924,0.868 -1.397,1.29 l 3.331,3.73 c 0.514,-0.46 1.021,-0.927 1.52,-1.404 z m -78.9,-1.14 -3.554,3.516 c 0.485,0.491 0.978,0.973 1.479,1.447 l 3.435,-3.634 c -0.461,-0.435 -0.914,-0.879 -1.36,-1.329 m 82.823,-3.001 c -0.413,0.482 -0.834,0.957 -1.262,1.426 l 3.688,3.375 c 0.466,-0.509 0.923,-1.025 1.372,-1.549 z m -86.622,-1.249 -3.891,3.141 c 0.433,0.536 0.876,1.066 1.326,1.587 l 3.783,-3.269 c -0.414,-0.48 -0.82,-0.966 -1.218,-1.459 m 90.108,-3.265 c -0.362,0.521 -0.733,1.036 -1.112,1.544 l 4.009,2.989 c 0.412,-0.554 0.816,-1.115 1.21,-1.682 z m -93.46,-1.343 -4.187,2.733 c 0.377,0.578 0.763,1.149 1.159,1.712 l 4.093,-2.873 c -0.364,-0.518 -0.719,-1.041 -1.065,-1.572 m 96.473,-3.503 c -0.307,0.555 -0.624,1.105 -0.95,1.649 l 4.29,2.569 c 0.355,-0.593 0.7,-1.192 1.035,-1.797 z m -99.34,-1.417 -4.441,2.297 c 0.316,0.612 0.643,1.219 0.979,1.819 l 4.361,-2.445 c -0.309,-0.552 -0.608,-1.108 -0.899,-1.671 m 101.848,-3.712 c -0.25,0.585 -0.51,1.164 -0.779,1.739 l 4.528,2.122 c 0.293,-0.626 0.576,-1.258 0.848,-1.895 z m -104.2,-1.467 -4.652,1.833 c 0.252,0.641 0.516,1.277 0.789,1.907 l 4.587,-1.989 c -0.251,-0.579 -0.493,-1.163 -0.724,-1.751 m 106.172,-3.891 c -0.19,0.609 -0.389,1.212 -0.598,1.813 l 4.722,1.645 c 0.227,-0.653 0.444,-1.31 0.65,-1.972 z m -107.99,-1.513 -4.813,1.355 c 0.187,0.665 0.384,1.325 0.592,1.981 l 4.766,-1.512 c -0.191,-0.603 -0.373,-1.211 -0.545,-1.824 m 109.403,-4.007 c -0.126,0.623 -0.261,1.24 -0.408,1.854 l 4.863,1.161 c 0.161,-0.67 0.309,-1.346 0.446,-2.024 z m -110.659,-1.548 -4.927,0.852 c 0.119,0.683 0.248,1.361 0.389,2.035 l 4.894,-1.022 c -0.129,-0.618 -0.247,-1.239 -0.356,-1.865 m 111.504,-4.088 c -0.062,0.632 -0.135,1.261 -0.218,1.887 l 4.956,0.659 c 0.091,-0.682 0.17,-1.368 0.238,-2.057 z m -112.191,-1.573 -4.987,0.353 c 0.049,0.69 0.109,1.377 0.18,2.061 l 4.973,-0.518 c -0.066,-0.629 -0.121,-1.261 -0.166,-1.896 m 117.465,-4.128 h -5 v 0.112 c 0,0.6 -0.01,1.199 -0.028,1.794 l 4.997,0.157 c 0.02,-0.648 0.031,-1.298 0.031,-1.951 z M -64.28,-58.292 c -0.023,0.687 -0.034,1.376 -0.034,2.068 v 0.242 l 5,-0.032 v -0.21 c 0,-0.636 0.01,-1.27 0.031,-1.901 z m 122.249,-4.246 -4.973,0.51 c 0.064,0.629 0.118,1.261 0.162,1.897 l 4.988,-0.346 c -0.048,-0.69 -0.106,-1.377 -0.177,-2.061 m -121.733,-1.936 c -0.091,0.682 -0.172,1.366 -0.241,2.055 l 4.975,0.5 c 0.064,-0.632 0.137,-1.262 0.221,-1.889 z m 120.789,-4.196 -4.897,1.009 c 0.128,0.619 0.245,1.243 0.353,1.869 l 4.928,-0.845 c -0.117,-0.682 -0.245,-1.36 -0.384,-2.033 m -119.649,-1.909 c -0.161,0.67 -0.311,1.345 -0.449,2.024 l 4.899,1 c 0.127,-0.622 0.264,-1.24 0.412,-1.854 z m 118.086,-4.101 -4.768,1.504 c 0.19,0.602 0.37,1.211 0.54,1.821 l 4.818,-1.34 c -0.186,-0.666 -0.383,-1.328 -0.59,-1.985 m -116.331,-1.857 c -0.228,0.653 -0.446,1.309 -0.653,1.97 l 4.771,1.494 c 0.19,-0.608 0.391,-1.212 0.601,-1.811 z m 114.167,-3.957 -4.59,1.985 c 0.25,0.578 0.49,1.162 0.721,1.75 l 4.655,-1.824 c -0.252,-0.643 -0.514,-1.28 -0.786,-1.911 M -58.51,-82.293 c -0.295,0.626 -0.578,1.256 -0.852,1.893 l 4.594,1.973 c 0.251,-0.584 0.511,-1.162 0.782,-1.738 z m 109.067,-3.757 -4.367,2.435 c 0.308,0.552 0.607,1.11 0.897,1.673 l 4.445,-2.289 c -0.315,-0.612 -0.64,-1.219 -0.975,-1.819 m -106.138,-1.725 c -0.357,0.591 -0.703,1.191 -1.04,1.797 l 4.371,2.428 c 0.308,-0.554 0.625,-1.103 0.951,-1.645 z m 102.846,-3.532 -4.098,2.865 c 0.363,0.518 0.716,1.042 1.061,1.573 l 4.193,-2.724 c -0.376,-0.578 -0.761,-1.15 -1.156,-1.714 m -99.38,-1.621 c -0.414,0.553 -0.82,1.113 -1.215,1.681 l 4.102,2.858 c 0.363,-0.52 0.734,-1.033 1.113,-1.539 z m 95.574,-3.278 -3.788,3.264 c 0.413,0.48 0.819,0.967 1.216,1.46 l 3.896,-3.133 c -0.432,-0.538 -0.873,-1.068 -1.324,-1.591 m -91.61,-1.498 c -0.466,0.508 -0.924,1.024 -1.374,1.546 l 3.791,3.26 c 0.414,-0.481 0.836,-0.956 1.265,-1.423 z m 87.331,-2.993 -3.445,3.625 c 0.461,0.438 0.914,0.883 1.36,1.335 l 3.56,-3.512 c -0.485,-0.491 -0.976,-0.973 -1.475,-1.448 m -82.904,-1.358 c -0.516,0.458 -1.025,0.926 -1.525,1.401 l 3.446,3.623 c 0.459,-0.436 0.925,-0.865 1.397,-1.284 z m 78.191,-2.684 -3.06,3.955 c 0.502,0.388 0.997,0.784 1.485,1.189 l 3.192,-3.848 c -0.532,-0.441 -1.071,-0.873 -1.617,-1.296 m -73.356,-1.198 c -0.559,0.403 -1.111,0.817 -1.655,1.239 l 3.065,3.951 c 0.5,-0.388 1.007,-0.767 1.52,-1.139 z m 68.256,-2.35 -2.642,4.245 c 0.539,0.335 1.072,0.681 1.6,1.035 l 2.78,-4.157 c -0.572,-0.382 -1.151,-0.757 -1.738,-1.123 m -63.054,-1.023 c -0.596,0.346 -1.185,0.7 -1.768,1.063 l 2.647,4.243 c 0.537,-0.336 1.081,-0.663 1.63,-0.982 z m 57.621,-1.991 -2.199,4.49 c 0.57,0.279 1.135,0.568 1.695,0.866 l 2.351,-4.412 c -0.609,-0.325 -1.225,-0.64 -1.847,-0.944 m -52.104,-0.84 c -0.629,0.283 -1.251,0.576 -1.868,0.88 l 2.206,4.486 c 0.567,-0.278 1.139,-0.548 1.715,-0.808 z m 46.389,-1.608 -1.734,4.69 c 0.597,0.221 1.189,0.45 1.776,0.69 l 1.893,-4.627 c -0.639,-0.261 -1.285,-0.512 -1.935,-0.753 m -40.614,-0.649 c -0.654,0.219 -1.304,0.447 -1.949,0.686 l 1.736,4.689 c 0.594,-0.221 1.193,-0.432 1.796,-0.633 z m 34.687,-1.203 -1.245,4.844 c 0.615,0.157 1.225,0.325 1.831,0.504 l 1.412,-4.797 c -0.662,-0.195 -1.328,-0.378 -1.998,-0.551 m -28.703,-0.457 c -0.676,0.151 -1.347,0.313 -2.014,0.486 l 1.257,4.84 c 0.611,-0.159 1.227,-0.308 1.846,-0.446 z m 22.618,-0.779 -0.744,4.945 c 0.627,0.094 1.251,0.198 1.871,0.314 l 0.917,-4.916 c -0.677,-0.126 -1.359,-0.24 -2.044,-0.343 m -16.498,-0.261 c -0.688,0.081 -1.371,0.174 -2.051,0.277 l 0.755,4.944 c 0.624,-0.096 1.252,-0.181 1.884,-0.256 z m 10.324,-0.354 -0.243,4.994 c 0.635,0.032 1.266,0.074 1.896,0.125 l 0.414,-4.982 c -0.686,-0.058 -1.375,-0.103 -2.067,-0.137 m -4.138,-0.065 c -0.691,0.014 -1.379,0.037 -2.063,0.071 l 0.251,4.994 c 0.633,-0.032 1.269,-0.053 1.907,-0.065 z" />
      </g>
      <g
         transform="matrix(1.3333333,0,0,-1.3333333,42.1511,61.784933)"
         id="g2406">
        <path
           inkscape:connector-curvature="0"
           id="path2408"
           style="fill:#cba952;fill-opacity:1;fill-rule:nonzero;stroke:none"
           d="M 0,0 41.495,-71.871 82.989,0 Z m 41.495,-75.621 c -0.447,0 -0.86,0.239 -1.083,0.625 L -3.248,0.625 c -0.223,0.387 -0.223,0.863 0,1.25 0.224,0.387 0.636,0.625 1.083,0.625 h 87.319 c 0.447,0 0.859,-0.238 1.082,-0.625 0.223,-0.387 0.223,-0.863 0,-1.25 L 42.577,-74.996 c -0.223,-0.386 -0.636,-0.625 -1.082,-0.625" />
      </g>
      <g
         transform="matrix(1.3333333,0,0,-1.3333333,71.2572,108.86507)"
         id="g2410">
        <path
           inkscape:connector-curvature="0"
           id="path2412"
           style="fill:#cba952;fill-opacity:1;fill-rule:nonzero;stroke:none"
           d="M 0,0 H 39.33 L 19.665,34.06 Z m 41.495,-2.5 h -43.66 c -0.447,0 -0.859,0.238 -1.083,0.625 -0.223,0.387 -0.223,0.863 0,1.25 l 21.831,37.81 c 0.446,0.773 1.718,0.773 2.165,0 l 21.829,-37.81 c 0.223,-0.387 0.223,-0.863 0,-1.25 C 42.354,-2.262 41.941,-2.5 41.495,-2.5" />
      </g>
      <g
         transform="matrix(1.3333333,0,0,-1.3333333,126.5833,78.536933)"
         id="g2414">
        <path
           inkscape:connector-curvature="0"
           id="path2416"
           style="fill:#cba952;fill-opacity:1;fill-rule:nonzero;stroke:none"
           d="m 0,0 c -6.41,0 -12.436,-2.496 -16.968,-7.028 -4.532,-4.532 -7.029,-10.558 -7.029,-16.968 0,-6.409 2.497,-12.436 7.029,-16.969 4.532,-4.532 10.559,-7.028 16.968,-7.028 6.409,0 12.436,2.496 16.968,7.028 4.532,4.533 7.029,10.56 7.029,16.969 0,6.409 -2.497,12.435 -7.029,16.968 C 12.436,-2.496 6.41,0 0,0 m 0,-50.493 c -7.077,0 -13.731,2.756 -18.736,7.761 -5.005,5.004 -7.761,11.659 -7.761,18.736 0,7.078 2.757,13.731 7.761,18.735 C -13.731,-0.256 -7.078,2.5 0,2.5 c 7.078,0 13.731,-2.756 18.736,-7.761 5.004,-5.004 7.761,-11.658 7.761,-18.735 0,-7.077 -2.756,-13.731 -7.761,-18.736 C 13.731,-47.737 7.077,-50.493 0,-50.493" />
      </g>
      <g
         transform="matrix(1.3333333,0,0,-1.3333333,68.3704,78.536933)"
         id="g2418">
        <path
           inkscape:connector-curvature="0"
           id="path2420"
           style="fill:#cba952;fill-opacity:1;fill-rule:nonzero;stroke:none"
           d="m 0,0 c -6.41,0 -12.436,-2.496 -16.968,-7.028 -4.532,-4.533 -7.028,-10.558 -7.028,-16.968 0,-6.409 2.496,-12.436 7.028,-16.969 4.532,-4.532 10.559,-7.028 16.968,-7.028 6.409,0 12.436,2.496 16.968,7.028 4.532,4.533 7.029,10.56 7.029,16.969 0,6.41 -2.497,12.436 -7.029,16.968 C 12.436,-2.496 6.41,0 0,0 m 0,-50.493 c -7.077,0 -13.731,2.756 -18.736,7.761 -5.004,5.004 -7.76,11.659 -7.76,18.736 0,7.077 2.756,13.731 7.76,18.735 C -13.731,-0.256 -7.078,2.5 0,2.5 c 7.078,0 13.731,-2.756 18.736,-7.761 5.004,-5.004 7.761,-11.657 7.761,-18.735 0,-7.077 -2.757,-13.732 -7.761,-18.736 C 13.731,-47.737 7.077,-50.493 0,-50.493" />
      </g>
      <g
         transform="matrix(1.3333333,0,0,-1.3333333,97.4772,28.122933)"
         id="g2422">
        <path
           inkscape:connector-curvature="0"
           id="path2424"
           style="fill:#cba952;fill-opacity:1;fill-rule:nonzero;stroke:none"
           d="m 0,0 c -6.41,0 -12.436,-2.496 -16.968,-7.028 -4.532,-4.533 -7.029,-10.559 -7.029,-16.969 0,-6.409 2.497,-12.436 7.029,-16.968 4.531,-4.532 10.558,-7.028 16.968,-7.028 6.41,0 12.436,2.496 16.968,7.028 4.532,4.532 7.028,10.559 7.028,16.968 0,6.41 -2.496,12.436 -7.028,16.969 C 12.436,-2.496 6.41,0 0,0 m 0,-50.493 c -7.078,0 -13.732,2.756 -18.736,7.761 -5.004,5.004 -7.761,11.658 -7.761,18.735 0,7.078 2.757,13.732 7.761,18.736 C -13.731,-0.256 -7.078,2.5 0,2.5 c 7.077,0 13.731,-2.756 18.735,-7.761 5.005,-5.004 7.761,-11.658 7.761,-18.736 0,-7.077 -2.756,-13.731 -7.761,-18.735 C 13.731,-47.737 7.078,-50.493 0,-50.493" />
      </g>
    </g>
  </g>
</svg>
