<?xml version="1.0" standalone="no"?>
<!DOCTYPE svg PUBLIC "-//W3C//DTD SVG 20010904//EN"
 "http://www.w3.org/TR/2001/REC-SVG-20010904/DTD/svg10.dtd">
<svg version="1.0" xmlns="http://www.w3.org/2000/svg"
 width="700.000000pt" height="700.000000pt" viewBox="0 0 700.000000 700.000000"
 preserveAspectRatio="xMidYMid meet">
<metadata>
Created by potrace 1.11, written by Peter Selinger 2001-2013
</metadata>
<g transform="translate(0.000000,700.000000) scale(0.100000,-0.100000)"
fill="#000000" stroke="none">
<path d="M3268 6870 c-442 -33 -838 -138 -1233 -329 -356 -172 -639 -374 -920
-655 -549 -550 -880 -1233 -971 -2006 -24 -197 -24 -563 0 -760 119 -1002 657
-1879 1496 -2436 454 -302 948 -479 1520 -545 135 -16 545 -16 680 0 576 66
1071 245 1530 552 703 469 1198 1169 1405 1989 71 279 98 506 98 820 1 527
-104 993 -327 1455 -463 961 -1338 1644 -2374 1854 -275 56 -639 81 -904 61z
m582 -135 c944 -104 1787 -608 2333 -1397 279 -404 458 -862 538 -1383 30
-189 37 -577 15 -784 -67 -632 -305 -1209 -705 -1711 -98 -124 -369 -394 -496
-495 -499 -399 -1098 -642 -1734 -705 -133 -13 -470 -13 -602 0 -936 94 -1762
562 -2321 1317 -335 451 -547 993 -613 1563 -31 279 -17 674 35 955 232 1246
1176 2251 2405 2560 147 37 376 76 510 88 119 11 513 5 635 -8z"/>
<path d="M3245 6619 c-743 -63 -1428 -381 -1955 -909 -721 -720 -1044 -1729
-874 -2730 150 -887 666 -1653 1439 -2139 122 -76 372 -202 515 -258 731 -286
1573 -278 2311 22 599 244 1121 684 1470 1239 249 398 399 832 460 1331 18
148 15 533 -5 689 -108 834 -500 1544 -1141 2067 -615 502 -1430 754 -2220
688z m413 -174 c2 -1 0 -55 -4 -119 l-7 -116 -48 0 -49 0 0 118 c0 65 3 122 7
126 6 6 92 -2 101 -9z m-294 -47 c12 -101 8 -185 -10 -192 -22 -8 -72 -7 -78
2 -2 4 -8 60 -11 125 l-8 117 50 0 50 0 7 -52z m582 24 c9 -5 7 -37 -7 -121
-10 -62 -20 -115 -23 -118 -3 -3 -25 -2 -50 1 -42 7 -45 9 -41 34 5 29 25 191
25 204 0 10 81 10 96 0z m-864 -119 c9 -65 15 -119 14 -120 -1 -2 -23 -6 -48
-9 l-45 -6 -22 114 c-11 63 -21 118 -21 121 0 7 33 14 76 16 l30 1 16 -117z
m1131 66 c20 -5 37 -11 37 -12 0 -7 -61 -231 -63 -233 -1 -2 -22 2 -45 8 -27
7 -42 16 -42 26 0 9 10 63 22 119 25 112 24 111 91 92z m-1412 -124 c16 -60
25 -113 21 -117 -12 -10 -82 -27 -86 -20 -5 8 -66 217 -66 226 0 8 62 25 84
23 16 -2 25 -21 47 -112z m1693 40 c20 -8 36 -19 36 -24 0 -12 -72 -204 -80
-214 -10 -11 -92 23 -87 37 2 6 19 57 38 114 18 56 38 102 45 102 6 0 28 -7
48 -15z m-1971 -112 c19 -54 38 -105 41 -113 5 -11 -6 -20 -39 -32 -24 -9 -46
-14 -49 -10 -10 17 -86 205 -86 214 0 10 57 37 81 38 12 0 27 -28 52 -97z
m2247 -3 l40 -20 -55 -110 -55 -110 -40 20 c-22 11 -40 25 -40 30 0 5 16 44
36 87 20 43 40 88 45 101 11 27 19 27 69 2z m-2510 -116 c28 -59 50 -110 50
-114 0 -8 -79 -45 -84 -39 -10 13 -106 198 -106 206 0 7 69 48 88 52 1 1 25
-47 52 -105z m2797 -69 c-37 -66 -113 -185 -119 -185 -4 0 -23 10 -43 21 -42
25 -43 20 30 145 l55 93 44 -26 c40 -24 43 -29 33 -48z m-3053 -63 c74 -118
74 -116 32 -142 -20 -12 -40 -19 -44 -16 -12 7 -136 196 -131 199 18 13 75 47
81 47 3 0 31 -39 62 -88z m1734 49 c259 -50 476 -165 661 -350 108 -108 179
-206 245 -337 71 -144 100 -245 132 -471 l5 -33 418 0 c389 0 420 -1 441 -18
13 -10 23 -29 23 -43 0 -15 -88 -177 -207 -383 -113 -197 -206 -360 -206 -364
0 -4 24 -23 52 -42 29 -19 96 -78 148 -130 598 -594 472 -1578 -258 -2012
-333 -199 -778 -226 -1140 -71 -46 19 -87 32 -91 27 -4 -5 -97 -164 -206 -354
-109 -190 -205 -353 -213 -362 -8 -10 -27 -18 -42 -18 -15 0 -34 8 -43 18 -8
9 -106 175 -217 367 -111 193 -204 352 -205 354 -2 2 -41 -13 -87 -32 -306
-131 -668 -134 -985 -7 -163 65 -307 164 -439 302 -328 341 -439 836 -289
1285 19 56 48 130 66 165 83 168 239 354 378 453 38 28 70 52 70 55 1 3 -94
169 -209 370 -116 200 -210 370 -210 378 0 7 11 24 25 37 l24 25 419 0 419 0
12 88 c55 430 311 795 694 988 107 54 237 99 343 118 120 22 352 20 472 -3z
m1542 -110 l34 -29 -73 -96 c-41 -53 -76 -96 -80 -96 -3 0 -21 13 -40 29 l-34
28 69 96 c37 54 73 97 79 97 5 0 26 -13 45 -29z m-3502 -117 l71 -92 -22 -19
c-56 -49 -49 -51 -131 49 -42 51 -76 96 -76 99 0 8 74 60 81 57 4 -2 39 -44
77 -94z m3680 -195 c-45 -49 -84 -89 -88 -89 -3 0 -20 15 -38 33 l-32 33 82
92 82 92 37 -36 38 -37 -81 -88z m-3901 12 l82 -88 -35 -34 -34 -33 -87 87
-87 87 34 35 c19 19 36 35 39 35 4 0 43 -40 88 -89z m4183 -140 c0 -9 -180
-166 -183 -159 -1 2 -15 18 -32 36 l-30 34 90 83 90 84 33 -34 c17 -19 32 -39
32 -44z m-4379 -68 c95 -82 93 -76 46 -130 l-20 -22 -59 46 c-32 26 -75 61
-96 78 l-36 32 29 36 c17 20 34 36 38 36 5 1 49 -34 98 -76z m4538 -127 l31
-45 -95 -65 c-52 -36 -99 -66 -104 -66 -5 0 -20 16 -35 35 l-26 34 97 75 c54
41 99 75 100 75 1 1 16 -19 32 -43z m-4666 -134 l47 -34 -17 -30 c-32 -54 -35
-54 -142 18 l-100 67 30 44 30 44 52 -38 c29 -20 73 -52 100 -71z m4847 -159
c0 -8 -139 -92 -201 -121 -9 -4 -51 66 -47 78 2 6 48 37 103 70 l100 59 22
-37 c13 -20 23 -42 23 -49z m-5048 -49 c54 -30 98 -57 98 -60 0 -3 -9 -23 -20
-45 l-21 -40 -109 57 -108 57 21 44 c11 23 25 43 31 43 5 0 54 -25 108 -56z
m5169 -182 l19 -43 -33 -14 c-17 -7 -68 -29 -113 -48 l-81 -35 -21 44 -22 44
103 50 c56 26 108 48 116 47 8 -1 22 -21 32 -45z m-5198 -121 c5 -5 0 -27 -10
-49 l-18 -40 -107 41 c-58 23 -109 45 -113 49 -4 3 2 27 13 52 l21 45 103 -45
c56 -25 107 -49 111 -53z m5312 -182 c5 -23 0 -26 -102 -57 -59 -18 -113 -32
-119 -32 -10 0 -39 78 -32 86 2 2 53 21 113 43 l110 39 12 -28 c7 -15 15 -38
18 -51z m-5522 -34 c59 -19 112 -37 117 -40 7 -4 -16 -96 -23 -95 -42 8 -225
68 -226 75 -2 10 17 95 22 95 1 0 51 -16 110 -35z m5593 -226 c8 -36 8 -52 0
-54 -30 -10 -228 -46 -232 -43 -2 3 -7 25 -10 49 l-6 45 108 26 c60 15 114 27
120 27 5 1 15 -22 20 -50z m-5638 -58 c51 -10 95 -20 97 -22 2 -3 -1 -25 -6
-50 l-10 -45 -120 20 -121 21 7 45 c9 57 12 61 38 55 12 -3 64 -14 115 -24z
m5688 -236 c3 -25 4 -48 2 -51 -7 -6 -237 -28 -242 -23 -2 2 -6 24 -7 49 l-4
45 80 11 c44 6 99 12 122 13 l42 1 7 -45z m-5678 -51 l42 -6 0 -50 0 -50 -77
7 c-43 3 -99 8 -125 11 -52 6 -54 11 -42 74 l7 32 76 -6 c42 -4 95 -9 119 -12z
m5696 -240 c3 -25 3 -50 0 -55 -3 -5 -59 -9 -125 -9 l-119 0 0 50 0 49 73 4
c39 1 93 4 118 5 l46 2 7 -46z m-5756 -40 l92 -7 0 -47 c0 -34 -4 -50 -16 -54
-9 -3 -65 -6 -125 -6 l-109 0 0 53 c0 30 3 57 7 60 8 9 36 9 151 1z m5725
-213 l29 -1 -7 -52 c-4 -29 -8 -54 -9 -55 0 -1 -53 5 -116 12 -63 8 -118 14
-122 15 -6 0 -2 57 7 85 1 6 36 8 96 3 52 -3 107 -7 122 -7z m-5615 -122 l3
-46 -117 -16 c-65 -9 -119 -15 -121 -13 -2 2 -6 26 -10 53 l-5 50 98 10 c151
16 148 16 152 -38z m5497 -158 l100 -17 -3 -49 c-2 -28 -5 -52 -7 -54 -2 -2
-57 8 -122 21 -129 27 -125 23 -108 96 6 26 9 26 140 3z m-5461 -69 c3 -5 8
-27 12 -49 l6 -41 -111 -26 c-61 -14 -115 -26 -120 -26 -5 0 -13 23 -18 50
-10 47 -9 51 11 55 17 4 183 39 208 44 4 0 9 -3 12 -7z m5342 -196 c27 -8 74
-21 106 -30 l56 -16 -14 -47 c-8 -25 -16 -48 -18 -51 -3 -2 -56 13 -119 34
l-114 38 9 35 c17 59 16 59 94 37z m-5257 -107 c7 -23 9 -45 4 -49 -17 -15
-217 -80 -224 -73 -12 14 -31 84 -24 91 7 7 202 70 221 71 6 1 16 -18 23 -40z
m5215 -180 c58 -23 106 -45 106 -50 0 -6 -26 -70 -36 -87 -3 -6 -224 92 -224
99 0 16 31 79 39 79 5 0 57 -18 115 -41z m-5119 -69 c8 -16 15 -35 15 -42 0
-13 -54 -43 -166 -94 l-52 -23 -20 49 -20 48 101 45 c56 25 108 46 114 46 7 1
19 -12 28 -29z m4998 -191 c56 -28 104 -53 106 -55 2 -2 -9 -24 -23 -49 l-27
-46 -32 19 c-18 11 -63 36 -102 57 -38 21 -72 40 -74 42 -7 5 31 83 41 83 4 0
54 -23 111 -51z m-4873 -55 c11 -20 19 -42 17 -49 -3 -6 -49 -37 -102 -69 -91
-55 -97 -57 -110 -39 -23 30 -40 76 -29 80 5 2 52 28 104 58 52 29 96 54 97
54 0 1 11 -15 23 -35z m4738 -198 l92 -58 -16 -27 c-42 -70 -33 -70 -141 4
-54 37 -99 69 -101 70 -2 2 9 21 23 44 17 26 32 38 39 33 7 -4 54 -33 104 -66z
m-4583 -42 c15 -20 23 -39 19 -43 -13 -12 -125 -94 -161 -119 l-32 -22 -29 43
-30 43 96 67 c53 37 99 67 103 67 4 0 19 -16 34 -36z m4406 -185 c49 -39 89
-73 89 -76 0 -3 -14 -23 -31 -44 l-30 -39 -94 81 -94 81 27 34 c15 19 31 34
36 34 4 0 48 -32 97 -71z m-4239 -26 c15 -15 28 -32 27 -37 0 -6 -40 -46 -87
-89 l-87 -77 -33 35 c-18 20 -32 40 -30 44 5 13 162 150 172 150 6 1 23 -11
38 -26z m4048 -188 l85 -85 -38 -38 -38 -37 -84 90 -83 90 31 33 c17 17 34 32
37 32 3 0 44 -38 90 -85z m-3827 -49 c-4 -6 -40 -48 -81 -94 l-75 -83 -39 38
-38 37 87 88 87 88 33 -32 c18 -17 29 -36 26 -42z m3617 -146 c79 -98 79 -98
20 -140 l-28 -20 -72 95 -73 96 28 29 c16 17 34 30 40 30 7 0 44 -41 85 -90z
m-3434 13 c21 -16 33 -32 29 -40 -11 -30 -128 -183 -139 -183 -6 0 -26 13 -45
29 l-34 28 74 96 c41 53 75 96 77 96 2 1 19 -11 38 -26z m3194 -173 c33 -50
63 -96 66 -104 4 -11 -73 -73 -81 -64 -5 6 -106 171 -116 189 -7 15 -2 23 28
44 21 14 39 25 40 25 1 0 30 -41 63 -90z m-2966 19 c20 -12 36 -25 36 -29 0
-7 -105 -195 -115 -208 -6 -6 -85 48 -85 58 0 5 15 33 34 62 18 29 45 72 60
96 14 23 28 42 31 42 2 0 20 -9 39 -21z m2729 -179 l58 -110 -45 -22 c-25 -12
-47 -20 -50 -17 -6 6 -106 208 -106 214 0 4 70 44 80 45 3 0 31 -49 63 -110z
m-2451 32 c7 -7 -75 -198 -92 -216 -10 -10 -90 21 -90 34 0 4 23 55 50 114
l50 106 38 -15 c20 -9 40 -19 44 -23z m2189 -149 c24 -59 45 -110 47 -113 4
-9 -91 -41 -99 -33 -8 10 -79 200 -79 213 0 10 54 38 76 39 7 1 31 -47 55
-106z m-1953 56 c12 -5 22 -12 22 -16 0 -4 -16 -57 -36 -116 -34 -102 -38
-108 -60 -103 -50 13 -76 27 -71 39 2 6 21 58 42 115 41 111 35 106 103 81z
m1680 -143 c18 -57 32 -111 32 -119 0 -9 -17 -19 -46 -26 -26 -7 -48 -11 -49
-9 -2 2 -17 56 -33 120 l-29 117 36 9 c20 6 41 10 47 11 6 1 25 -46 42 -103z
m-1420 69 c17 -4 32 -8 32 -9 0 -10 -52 -231 -55 -234 -2 -3 -26 1 -53 8 l-49
11 31 120 c24 92 34 118 46 115 8 -3 30 -7 48 -11z m1122 -27 c0 -2 9 -49 20
-106 28 -143 28 -138 -26 -147 -25 -3 -48 -4 -50 -2 -3 3 -13 57 -23 121 l-17
117 20 4 c12 2 30 6 41 8 29 7 35 7 35 5z m-824 -31 c5 -4 -12 -166 -22 -216
-5 -21 -9 -23 -50 -18 -25 2 -48 7 -51 11 -3 3 2 58 12 122 l18 116 44 -5 c24
-2 46 -7 49 -10z m245 -17 l29 0 0 -120 0 -120 -53 0 -53 0 4 103 c4 128 8
151 28 143 9 -3 29 -6 45 -6z m314 -67 c4 -43 7 -98 8 -123 l2 -45 -52 -3 -53
-3 0 49 c0 27 -3 83 -6 125 l-7 77 51 0 50 0 7 -77z"/>
<path d="M3361 5859 c-524 -61 -950 -490 -1007 -1016 l-7 -63 1152 0 c1117 0
1151 1 1151 19 0 10 -7 58 -15 107 -89 510 -498 896 -1008 953 -108 12 -159
12 -266 0z"/>
<path d="M1527 4618 c10 -18 90 -157 178 -310 l159 -276 46 23 c74 37 218 82
325 100 55 9 101 17 101 18 1 1 -11 34 -26 72 -38 93 -68 210 -81 317 l-12 88
-354 0 -355 0 19 -32z"/>
<path d="M2355 4583 c11 -101 48 -239 90 -330 l37 -80 89 -7 c109 -8 248 -42
370 -91 74 -30 94 -35 100 -24 5 8 74 127 155 264 80 138 156 269 170 293 l25
42 -522 0 -521 0 7 -67z"/>
<path d="M3633 4608 c13 -24 91 -158 172 -298 81 -140 151 -259 155 -263 4 -5
49 8 99 28 123 49 266 84 373 92 l87 6 29 66 c50 111 102 312 102 392 0 18
-19 19 -521 19 l-521 0 25 -42z"/>
<path d="M4776 4618 c-26 -185 -59 -313 -110 -430 -6 -14 0 -18 41 -23 94 -13
259 -58 343 -94 l86 -37 149 260 c83 143 162 281 178 308 l27 48 -354 0 -355
0 -5 -32z"/>
<path d="M3325 4290 c-92 -160 -169 -298 -171 -308 -4 -12 13 -30 57 -62 73
-53 205 -183 250 -245 18 -25 35 -45 38 -44 3 0 29 30 56 66 58 75 154 167
238 226 31 23 57 45 57 50 0 7 -107 196 -314 555 -17 28 -33 52 -37 52 -4 0
-82 -131 -174 -290z"/>
<path d="M2323 4039 c-40 -5 -103 -15 -140 -24 -72 -16 -253 -83 -253 -92 0
-4 11 -25 23 -47 173 -301 490 -852 492 -854 3 -4 16 18 201 340 85 148 154
271 154 275 0 5 -24 24 -53 43 -75 50 -244 223 -296 303 -25 37 -47 66 -50 66
-3 -1 -38 -5 -78 -10z"/>
<path d="M4556 3994 c-76 -114 -211 -250 -337 -338 l-23 -16 20 -37 c50 -99
328 -573 335 -573 4 0 43 62 86 138 44 75 159 275 256 444 97 170 177 310 177
312 0 8 -165 68 -240 87 -41 11 -112 23 -157 27 l-83 8 -34 -52z"/>
<path d="M2581 4019 c17 -34 185 -197 241 -236 l46 -33 46 80 c25 43 46 83 46
89 0 22 -220 96 -348 116 -44 7 -44 7 -31 -16z"/>
<path d="M4326 4024 c-37 -7 -91 -21 -120 -30 -47 -15 -167 -63 -174 -69 -1
-1 20 -41 48 -88 l51 -86 52 37 c60 43 193 172 226 220 26 38 26 38 -83 16z"/>
<path d="M1760 3819 c-165 -124 -304 -303 -380 -492 -64 -161 -75 -222 -74
-437 0 -168 3 -206 22 -273 55 -200 145 -365 277 -505 335 -357 829 -466 1285
-282 l80 32 -32 57 c-17 31 -266 461 -552 956 -285 495 -530 919 -544 943 -13
23 -24 42 -25 42 -1 0 -27 -19 -57 -41z"/>
<path d="M3831 3793 c-77 -62 -217 -211 -207 -221 15 -14 241 45 345 91 l51
22 -46 80 c-25 44 -49 83 -53 87 -4 5 -44 -22 -90 -59z"/>
<path d="M5107 3732 c-99 -168 -993 -1718 -1041 -1803 l-37 -67 73 -30 c570
-237 1217 9 1485 564 29 61 65 156 80 210 25 91 27 115 27 289 0 176 -2 197
-28 290 -32 117 -96 257 -163 358 -53 79 -202 234 -275 284 l-46 33 -75 -128z"/>
<path d="M3026 3769 c-26 -45 -46 -83 -44 -85 3 -2 38 -17 78 -34 80 -33 193
-64 275 -76 48 -6 49 -6 34 12 -93 113 -124 144 -193 200 -44 35 -85 64 -92
64 -6 0 -32 -36 -58 -81z"/>
<path d="M2890 3533 c-36 -60 -306 -526 -319 -550 l-12 -23 355 0 355 0 5 33
c22 160 32 206 65 302 21 61 41 117 45 126 6 14 -5 18 -73 28 -100 15 -235 54
-319 92 -36 16 -68 29 -72 29 -5 0 -18 -17 -30 -37z"/>
<path d="M4035 3553 c-56 -31 -220 -81 -323 -99 -86 -15 -102 -20 -96 -33 56
-136 104 -325 104 -410 0 -24 5 -44 13 -46 6 -3 168 -4 359 -3 l346 3 -173
300 c-95 165 -179 301 -187 302 -7 1 -26 -5 -43 -14z"/>
<path d="M3462 3268 c-28 -86 -62 -242 -62 -289 0 -17 9 -19 101 -19 l100 0
-6 48 c-17 129 -63 301 -89 338 -11 14 -17 3 -44 -78z"/>
<path d="M2560 2827 c0 -2 107 -188 237 -413 130 -225 246 -426 257 -446 12
-21 23 -38 26 -38 3 0 43 30 88 66 82 65 178 168 228 244 l26 39 -45 108 c-52
123 -81 231 -96 353 -6 46 -11 86 -11 87 0 2 -160 3 -355 3 -195 0 -355 -1
-355 -3z"/>
<path d="M3400 2811 c0 -79 79 -381 100 -381 21 0 99 308 100 393 0 4 -45 7
-100 7 -91 0 -100 -2 -100 -19z"/>
<path d="M3726 2818 c-2 -7 -8 -53 -14 -103 -13 -112 -52 -245 -102 -352 l-39
-83 46 -62 c54 -74 189 -209 255 -256 l47 -32 64 107 c46 78 387 666 454 786
2 4 -156 7 -352 7 -276 0 -356 -3 -359 -12z"/>
<path d="M3432 2080 c-62 -79 -152 -163 -243 -228 l-47 -34 105 -181 c58 -100
137 -237 175 -304 39 -68 73 -123 77 -123 7 0 351 594 351 606 0 5 -22 24 -48
41 -72 49 -191 163 -247 236 -27 36 -52 66 -55 66 -3 0 -33 -35 -68 -79z"/>
</g>
</svg>
